<?xml version="1.0" encoding="utf-8"?>
<!-- Generator: Adobe Illustrator 24.0.1, SVG Export Plug-In . SVG Version: 6.00 Build 0)  -->
<svg version="1.1" xmlns="http://www.w3.org/2000/svg" xmlns:xlink="http://www.w3.org/1999/xlink" x="0px" y="0px"
	 viewBox="0 0 177.9 216.4" style="enable-background:new 0 0 177.9 216.4;" xml:space="preserve">
<style type="text/css">
	.st0{display:none;}
	.st1{display:inline;}
	.st2{fill:#F9F1E1;}
	.st3{fill:#EAF4FE;}
	.st4{fill:none;stroke:#0561FC;stroke-width:6.8376;stroke-miterlimit:10;}
	.st5{fill:#0561FC;}
	.st6{fill:#C5E1F9;}
	.st7{fill:#7EB3FF;}
	.st8{fill:#B5D5EA;}
	.st9{fill:#E1EBF4;}
	.st10{fill:#9AC7F7;}
	.st11{fill:none;stroke:#0561FC;stroke-width:6.8376;}
	.st12{fill:none;stroke:#7EB3FF;stroke-width:6.8376;}
	.st13{fill:none;stroke:#0561FC;stroke-width:6.8376;stroke-linecap:round;}
	.st14{fill:none;stroke:#0561FC;stroke-width:7.1001;}
	.st15{fill:#B6D9EF;}
	.st16{fill:none;stroke:#9AC7F7;stroke-width:6.8376;}
	.st17{fill:none;stroke:#0561FC;stroke-width:6.8376;stroke-linejoin:bevel;}
	.st18{fill:none;stroke:#0561FC;stroke-width:6.8376;stroke-linecap:round;stroke-linejoin:round;}
	.st19{fill:none;stroke:#0561FC;stroke-width:5.0237;}
	.st20{fill:none;stroke:#0450CF;stroke-width:6.8376;}
	.st21{fill:none;stroke:#C5E1F9;stroke-width:6.8376;}
	.st22{fill:#FFBF0D;}
	.st23{fill:#B2D2EA;}
	.st24{fill:none;stroke:#0561FC;stroke-width:6.9311;}
	.st25{fill:none;stroke:#0561FC;stroke-width:6.8376;stroke-linecap:round;stroke-miterlimit:10;}
	.st26{fill:#FFFFFF;}
	.st27{fill:#FFFFFF;stroke:#0561FC;stroke-width:6.8376;}
</style>
<g id="Layer_2">
	<g class="st0">
		<g class="st1">
			<rect x="-14.2" y="4.6" class="st2" width="218.8" height="218.8"/>
		</g>
	</g>
</g>
<g id="Layer_3">
</g>
<g id="Layer_4">
	<g>
		<g>
			<g>
				<path class="st10" d="M88.9,23.2L0,85.1V92c0,6.7,5.4,12.1,12.1,12.1h153.6c6.7,0,12.1-5.4,12.1-12.1v-6.9L88.9,23.2z"/>
				<path class="st22" d="M12.1,216.4C5.4,216.4,0,211,0,204.3V99.2C0,92.5,5.4,87,12.1,87h153.6c6.7,0,12.1,5.4,12.1,12.1v105.1
					c0,6.7-5.4,12.1-12.1,12.1H12.1z"/>
				<path class="st22" d="M12.1,216.4C5.4,216.4,0,211,0,204.3V99.2C0,92.5,5.4,87,12.1,87h153.6c6.7,0,12.1,5.4,12.1,12.1v105.1
					c0,6.7-5.4,12.1-12.1,12.1H12.1z"/>
				<path class="st10" d="M165.8,87H12.1C5.4,87,0,92.5,0,99.2l0,6.4l141.1,110.9l24.6,0c6.7,0,12.1-5.4,12.1-12.1V99.2
					C177.9,92.5,172.5,87,165.8,87z"/>
			</g>
			<g>
				<path class="st3" d="M153.7,165.8c0,6.7-5.4,12.1-12.1,12.1H36.5c-6.7,0-12.1-5.4-12.1-12.1V12.1C24.4,5.4,29.8,0,36.5,0l72.8,0
					l44.5,44.5V165.8z"/>
				<polygon class="st6" points="113.3,40.4 153.7,80.3 153.7,44.5 149.7,40.4 				"/>
				<path class="st5" d="M109.3,0v32.3c0,6.7,5.4,12.1,12.1,12.1l32.3,0L109.3,0z"/>
			</g>
			<path class="st6" d="M0,105.5l0-6.4v105.1c0,6.7,5.4,12.1,12.1,12.1h129L0,105.5z"/>
			<path class="st23" d="M177.9,105.5v-6.4v105.1c0,6.7-5.4,12.1-12.1,12.1h-129L177.9,105.5z"/>
		</g>
		<line class="st24" x1="41.7" y1="69" x2="105.4" y2="69"/>
		<g>
			<line class="st24" x1="41.7" y1="87.2" x2="132.8" y2="87.2"/>
			<line class="st24" x1="41.7" y1="105.4" x2="132.8" y2="105.4"/>
			<line class="st24" x1="41.7" y1="123.6" x2="132.8" y2="123.6"/>
		</g>
	</g>
</g>
</svg>
